<svg width="1000" height="1000" xmlns="http://www.w3.org/2000/svg"><title>Layer 1</title><path d="M961.426 408.094c0-200.355-162.376-362.73-362.73-362.73-200.355 0-362.731 162.375-362.731 362.73 0 200.355 162.376 362.73 362.73 362.73 200.355-.094 362.73-162.375 362.73-362.73zm-667.692 0c0-168.125 136.837-304.961 304.961-304.961 168.125 0 304.961 136.836 304.961 304.961 0 168.124-136.836 304.961-304.96 304.961-168.125 0-304.962-136.837-304.962-304.961zM78.678 968.917l-40.806-40.806 243.045-243.045 40.806 40.806L78.678 968.917z" stroke="null"/></svg>