<svg width="1000" height="1000" xmlns="http://www.w3.org/2000/svg" xmlns:svg="http://www.w3.org/2000/svg">
 <metadata>Svg Vector Icons : http://www.onlinewebfonts.com/icon</metadata>
 <g>
  <title>Layer 1</title>
  <g stroke="null" transform="rotate(-90 499.6488342285157,507.14038085937506) " id="svg_1">
   <path stroke="null" fill="black" d="m598.69526,968.91723c200.35461,0 362.73043,-162.37582 362.73043,-362.73043c0,-200.35461 -162.37582,-362.73043 -362.73043,-362.73043c-200.35461,0 -362.73043,162.37582 -362.73043,362.73043c0.09424,200.35461 162.37582,362.73043 362.73043,362.73043zm0,-667.69164c168.12447,0 304.9612,136.83673 304.9612,304.9612c0,168.12447 -136.83673,304.9612 -304.9612,304.9612c-168.12447,0 -304.9612,-136.83673 -304.9612,-304.9612c0,-168.12447 136.83673,-304.9612 304.9612,-304.9612zm-560.82328,-215.05608l40.806,-40.806l243.04541,243.04541l-40.806,40.806l-243.04541,-243.04541z" id="svg_2"/>
  </g>
 </g>
</svg>
