<svg xmlns="http://www.w3.org/2000/svg" viewBox="0 0 898.17334 191.98666" height="191.987" width="898.173"><g fill="#fff"><path d="M314.473 92.423c0 8.426 1.926 10.938 11.826 11.23v5.172h-37.684v-5.172c9.901-.292 11.821-2.804 11.821-11.23V23.41c0-8.424-1.92-10.937-11.821-11.232V7.004h37.684v5.173c-9.9.295-11.826 2.808-11.826 11.232v69.014M414.084 103.804v5.02h-33.397v-5.02c9.308-.443 10.342-2.07 10.342-9.312V56.955c0-8.719-3.694-12.119-10.785-12.119-8.872 0-14.487 3.548-20.399 9.312v40.344c0 7.242 1.035 8.87 10.348 9.312v5.02h-34.137v-5.02c8.423-.591 10.343-1.922 10.343-10.347V57.251c0-10.788-2.068-12.266-10.787-12.562v-4.433l18.917-5.912h2.214c1.034 2.364 2.366 7.685 2.516 12.857 6.648-6.945 14.037-12.708 25.266-12.708 11.826 0 19.951 6.944 19.951 19.802v39.162c0 8.425 1.775 9.756 9.608 10.347M470.539 15.872h-9.015c-.736-4.879-2.805-7.684-6.797-7.684-5.616 0-8.868 3.841-8.868 14.037v14.04h17.884l-2.07 8.128h-15.665v49.064c0 7.982 1.627 9.904 13.153 10.347v5.02h-36.948v-5.02c8.424-.591 10.348-1.922 10.348-10.347V44.393h-9.313v-4.728l9.313-3.4v-13.89c0-13.596 9.603-21.431 23.498-21.431 5.614 0 10.934 1.184 14.48 2.661v12.267M503.643 41.29c-14.779 0-19.21 11.233-19.21 29.557 0 22.315 5.32 32.514 19.802 32.514 12.71 0 19.214-10.642 19.214-29.705 0-22.61-6.946-32.365-19.806-32.365zm.298 69.31c-19.805 0-33.993-14.186-33.993-38.274 0-23.942 14.188-38.278 33.695-38.278 21.876 0 34.286 16.7 34.286 39.016 0 23.497-14.336 37.537-33.988 37.537M590.84 33.901c1.627 0 3.252.296 4.43.739l-3.246 14.63c-1.035-.443-2.368-.738-4.585-.738-12.119 0-16.107 4.728-16.107 19.065v25.86c0 8.425 1.476 9.904 12.561 10.347v5.02h-36.356v-5.02c8.424-.591 10.348-1.922 10.348-10.347V57.251c0-10.788-2.073-12.266-10.79-12.562v-4.433l18.917-5.912h2.217c1.034 2.513 2.512 8.72 2.512 16.848 5.763-10.197 12.119-17.29 20.099-17.29M709.073 12.177c-9.314.59-11.974 2.955-11.974 8.718 0 .445 0 .888.149 2.514l5.912 68.571c.736 8.571 2.07 11.381 10.492 11.673v5.172h-35.027v-5.172c8.572-.292 11.083-2.068 11.083-7.978 0-.591 0-1.183-.143-2.66l-4.288-54.088c-.441-4.583-.441-10.788-.441-14.483v-2.957h-.89c-.443 3.252-1.771 10.938-3.397 16.109l-22.169 71.229h-8.865l-21.727-67.98c-1.92-6.056-3.839-16.844-4.287-19.505h-.885c0 2.07-.293 9.755-.885 19.505l-2.959 52.02c0 .297-.144 1.627-.144 3.253 0 5.764 2.213 7.243 10.935 7.535v5.172H598.82v-5.172c8.424-.292 9.906-2.804 10.643-11.673l5.027-68.57c0-.297.145-1.774.145-2.515 0-6.206-2.663-8.128-11.97-8.718V7.004h28.523l21.428 66.945c2.218 6.948 3.103 14.041 3.402 17.144h.885c.292-2.807 1.476-10.788 3.396-16.994l20.1-67.095h28.673v5.173M723.11 103.653c9.902-.292 11.826-2.804 11.826-11.23V23.41c0-8.424-1.924-10.937-11.825-11.232V7.004h69.46l1.476 22.168h-6.206c-3.253-11.23-5.614-14.925-14.188-14.925h-24.68V52.08h13.746c9.164 0 12.118-2.07 12.71-10.493h6.056v28.078h-6.056c-.592-7.981-3.401-10.492-12.562-10.492h-13.894v42.412h24.831c11.377 0 14.185-3.398 15.37-17.14h6.649v24.38H723.11v-5.172M832.327 69.961h29.702l-6.648-21.872c-3.988-13.008-6.649-23.794-7.684-28.229h-.59c-1.627 5.913-3.844 14.78-7.982 28.23zm31.772 7.094h-33.99l-4.877 15.96c-.588 2.069-.885 3.842-.885 5.172 0 4.284 3.25 5.174 10.79 5.466v5.172h-31.626v-5.172c7.09-.591 9.458-2.804 12.709-12.706l27.192-83.943h13.153l26.898 83.646c2.66 8.274 4.729 12.412 12.41 13.003v5.172h-36.205v-5.172c7.09-.292 10.05-1.92 10.05-6.206 0-1.475-.443-3.397-.742-4.432l-4.877-15.96"/><path d="M145.448 9.601c.577.386.936 1.247.977 1.934 0 .136.058.224-.108.224-.65.369-2.245.921-3.042.965-.194-.03-.395-.068-.616-.096v.103c-.107.14-.218.289-.338.433-.237.17-.508.35-.757.53-.359.298-1.615 2.22-1.615 2.593h-.216c-.11-1.364-.25-2.728-.361-4.088-.03-.124-.159-.33.057-.33.564-.334 2.378-.592 2.378-1.404.326.06.754.339 1.11.238.164-.04.164-.238.382-.238.437-.253 1.613-.753 2.149-.753v-.11M155.17 14.672h.209c.192.664.985 1.72.937 2.372-.05.673-1.684 2.001-1.684 2.48-.336-.17-3.447-3.492-3.447-3.665.916-.263 1.855-.514 2.771-.787.397-.104.777-.29 1.215-.29v-.11M155.379 27.712c-.048-.07.242-.07.284.019-.092-.004-.194-.004-.284-.019M145.788 41.836c0 .145.019.116-.121.116.089.077.121.077.121.219h.099v-.12h.12c-.08-.07-.15-.139-.219-.215M139.43 47.777c.938.116 1.826.598 2.694.963.385.14.775.29 1.175.443v.098h-.103v.114c-1.572.55-2.647-1.828-4.339-.248-.144.12-.502.376-.502.565h-.118c0-.165-.082-.213.118-.213.34-.58.709-1.14 1.074-1.722M136.721 49.712v.216c.111-.057.222-.052.222-.216h-.222M164.543 54.459c.278.622 1.148 5.179.966 5.78-.089.264-.5.488-.737.488-.157-1.095-.33-2.17-.48-3.243-.097-.625-.307-1.392-.196-2.047.16-.317.295-.652.447-.978M146.425 55.743c.102.129.13.224.318.224a3.213 3.213 0 0 1-.318-.224M115.164 59.954v0M115.486 60.27c.02.154.06.293.108.457 0-.224-.026-.313-.108-.458M129.611 66.754v0M98.672 80.014c0 .143.039.098-.12.098v.11c.096-.083.067-.11.206-.11-.026-.033-.047-.064-.086-.098M76.446 83.997v.11c-.106.024.072.11.11.11-.038-.076-.058-.14-.11-.22M76.778 83.997v0M77.425 84.425c0 .154-.089.438.108.438-.038-.15-.058-.284-.108-.438M74.628 85.295c0 .186-.101.857.1.857a9.162 9.162 0 0 1-.1-.857M117.868 93.371v.118c-.308.14-.587.286-.876.436v.108h.226c.162.04.857.208.857 0h.1c0-.18-.07-.544.111-.544-.14-.034-.289-.065-.418-.118M118.616 93.814c0 .135-.085.324.098.324 0-.144-.04-.105.12-.105-.081-.084-.144-.15-.218-.22M141.465 103.523c0 .127.019.101-.101.101.08.123.12.216.308.216-.048-.125-.13-.216-.207-.317M138.556 105.885c0 .156.05.104-.097.104.076.08.097.086.097.224h.119v-.112h.101c-.081-.06-.14-.146-.22-.216M84.427 111.166c.101.216.241.648.54.648v-.101c-.194-.188-.323-.401-.54-.547M156.564 117.202c.399.22.539.766.7 1.172.219.55.587 1.216.625 1.857.028.526-.926 3.635-1.202 4.023-.279.36-1.738 1.365-2.178 1.365-.314-.437-1.31-1.255-1.373-1.753-.13-.747.879-2.69 1.139-3.437.18-.48.266-1.055.578-1.495.458-.656 1.134-1.156 1.711-1.732M70.312 119.374c-.05.13-.207.417 0 .417v.12h.102v-.537h-.102M75.7 125.507c.06.062.102.112.102.221-.042-.08-.059-.159-.102-.221M160.121 126.036v0M158.828 127.78v0M63.51 134.153v.091h.11v.112c.099-.09.109-.083.109-.203h-.22M63.848 134.356c0 .139-.04.096.1.096v.112c.09-.07.12-.112 0-.112a.318.318 0 0 1-.1-.096M21.573 136.624v0M44.425 144.057v0M32.8 149.335c.008.141 0 .318.19.318-.06-.098-.14-.218-.19-.318M135.648 155.593c0 .18-.019.635.1.635v-.09a19.04 19.04 0 0 0-.1-.545M196.708 11.163c1.732 2.545 3.565 5.053 5.639 7.421 1.433 1.623 2.59 3.579 4.205 5.08a518.886 518.886 0 0 0 3.863 3.475c1.196 1.028 2.729 1.79 3.824 2.954h.121c0-1.702-.828-3.749-1.276-5.298-.428-1.386-.848-2.786-1.275-4.17-.649-1.229-1.293-2.47-1.944-3.721-.426-.79-.884-1.604-1.302-2.39-.64-.955-1.592-1.7-2.372-2.575-1.164-1.324-2.372-2.748-3.746-3.912-1.732-1.252-3.456-2.507-5.22-3.751a98.036 98.036 0 0 0-1.96-1.447c-1.025-.561-2.064-1.125-3.098-1.688-.718-.404-1.458-.948-2.292-1.14 1.118 2.094 2.153 4.222 3.396 6.226 1.157 1.648 2.3 3.285 3.437 4.936M27.531 28.639c.917-.412 1.811-.822 2.687-1.295C38.146 23.18 44.525 15.917 48.38 8.027a83.246 83.246 0 0 0 2.698-6.198c.18-.485.597-1.137.46-1.712-.796.372-1.627.751-2.454 1.134-2.03 1.017-4.043 2.137-5.915 3.426C37.055 8.8 31.474 14.681 28.645 21.343c-.975 2.325-1.79 4.726-1.79 7.56.255 0 .467-.171.676-.264M197.875 21.247c0-.06-.01-.036 0 0" fill-rule="evenodd"/><path d="M215.913 22.627c.41 1.59.815 3.178 1.196 4.773.238 2.405.459 4.82.675 7.216.063 1.195.121 2.43.343 3.555h-.104v.11h-.536v-.11h-.102c0-.168.102-.21.203-.322h-.101c-1.035-.822-1.766-2.014-2.671-2.942-.764-.71-1.55-1.403-2.312-2.095-3.441-3.221-7.24-6.076-10.875-8.86-.817-.596-1.634-1.19-2.448-1.79-.433-.31-.89-.62-1.306-.915 0 .096 0 .389.05.504.159.309.318.609.455.905.499.988.999 1.985 1.484 2.97 1.357 1.622 2.719 3.247 4.075 4.86 2.449 2.67 4.852 5.377 7.361 8.049 1.075 1.161 2.141 2.321 3.219 3.468a615.32 615.32 0 0 1 5.196 4.6c.997.832 2.356 1.766 3.157 2.792h.104v.104h.108c.177-.972.35-1.944.517-2.931.164-.963.338-1.917.5-2.879.216-1.016.476-2.042.496-3.141.052-3.927.142-7.91-.696-11.412-.318-1.31-.838-2.535-1.205-3.801-1.365-4.579-3.487-9.58-7.321-12.655-.856-.665-1.574-1.248-2.63-1.46.61 1.83 1.236 3.673 1.855 5.492.428 1.981.876 3.937 1.313 5.915M197.875 21.247zM18.018 50.792c.519 0 4.69-3.968 5.438-4.596 1.085-.992 2.192-1.98 3.279-2.959 1.53-1.638 3.067-3.284 4.58-4.922 2.849-2.95 5.537-5.931 7.991-9.075.676-.859 4.56-6.208 4.282-6.91 0 .038-4.742 3.513-5.297 3.891-1.496 1.048-2.882 2.268-4.364 3.384-1.553 1.179-3.11 2.466-4.565 3.863-.953.859-1.951 1.73-2.908 2.587-1.114 1.116-1.951 2.498-3.168 3.526v.115h-.1v-.115c-.145 0-.079-.358-.079-.554v-2.364c-.076-1.076-.139-2.442.04-3.456.139-1.508.3-3.011.437-4.508.221-1.396.698-2.774 1.077-4.136.597-2.31 1.198-4.57 2.011-6.747.27-.717 1.913-4.703 1.593-5.188-.934.77-1.91 1.565-2.785 2.513-.53.563-.948 1.227-1.376 1.864-1.852 2.63-3.575 5.172-4.86 8.09-.48 1.109-.919 2.189-1.397 3.296-.556 1.917-.777 4.029-.933 6.109-.181 2.277-.48 4.837-.359 7.228.168 3.165 1.174 6.004 1.463 9.064" fill-rule="evenodd"/><path d="M10.736 70.18c.6 1.898 1.254 3.74 1.952 5.6.418 1.1.894 2.187 1.137 3.365h.099c.24-.464.475-.945.717-1.407 1.056-2.331 2.45-4.553 3.865-6.716 1.513-2.355 3.028-4.717 4.563-7.086 1.092-2.033 2.199-4.08 3.306-6.112.76-1.41 1.505-2.839 2.25-4.253.227-.568.42-1.128.648-1.678 1.008-2.822 2.001-5.637 3.019-8.452.018-.178.048-.38-.05-.524v.099a39.2 39.2 0 0 1-1.663 1.475c-1.077.966-2.17 1.933-3.089 3.058-3.069 3.707-6.555 7.242-9.422 11.072-.675.889-1.315 1.769-1.993 2.64-.478.656-1.095 1.296-1.406 2.037h-.209v-.106c-.156 0-.099-.577-.099-.762-.04-2.358.13-4.691-.04-6.995-.18-2.343-.387-4.736-.696-7.024-.019-.503-.06-.991-.081-1.503-.299-2.043-.558-4.085-.635-6.27.016-2.431.016-4.882.038-7.317 0-.844.15-1.942-.12-2.684-1.674 2.43-3.147 4.994-3.926 7.874a588.52 588.52 0 0 0-1.063 5.178c-.067.931-.14 1.859-.187 2.791-.102.94-.183 1.861-.304 2.801-.055 1.358.181 2.696.304 3.982.466 5.975 1.395 11.584 3.085 16.917M220.473 54.77c-.5-.613-1.033-1.238-1.544-1.87-.976-1.217-1.957-2.432-2.933-3.652-.93-.885-1.853-1.792-2.793-2.707a38.809 38.809 0 0 0-3.227-2.924c-.39-.32-.697-.681-1.115-.912v-.116c-.241 0 .076.798.159.96 1.019 2.842 2.015 5.675 3.007 8.508.769 1.968 1.833 3.704 2.789 5.556 2.312 4.37 4.821 8.579 7.353 12.832 1.154 1.939 2.428 3.853 3.563 5.823.452.857.9 1.699 1.357 2.555 0 .159.036.113.219.113.03-.22.08-.452.128-.657.043-.512.01-1.025-.03-1.513h.1c.069.236.138.443.222.657h.121v-.11c.118 0 .235-.698.287-.869.488-1.328.976-2.677 1.46-4.005.639-1.787 1.14-3.702 1.577-5.586.38-1.517.736-3.026 1.135-4.537.16-1.224.34-2.445.516-3.653.341-2.143.62-4.291.736-6.576.087-1.047.163-2.082.245-3.132a477.434 477.434 0 0 1-.52-5.928c-.201-.786-.37-1.578-.558-2.388a65.811 65.811 0 0 0-.504-2.242c-.323-.98-.871-1.878-1.259-2.817-.45-1.125-1.017-2.179-1.604-3.232-.337-.496-.655-1.001-.976-1.507v7.12c0 1.642.057 3.314-.16 4.843-.279 2.157-.58 4.317-.853 6.459-.398 2.4-.918 4.818-1.136 7.246 0 2.082-.014 4.16-.024 6.253h-.219c0-.154-1.967-2.706-2.21-3.055-1.114-1.638-2.2-3.284-3.309-4.936" fill-rule="evenodd"/><path d="M2.33 78.05c.339 1.225.656 2.471.996 3.695.466 1.978 1.122 3.834 1.724 5.709.267.786.464 1.604.825 2.35.477.952 1.054 1.884 1.554 2.834.856 1.603 1.693 3.209 2.74 4.707 1.342 1.839 2.648 3.69 3.971 5.524.28 0 .424-.221.52-.445 1.197-2.651 2.381-5.314 3.598-7.963.366-.833.736-1.684 1.102-2.52 1.268-3.333 2.526-6.696 3.786-10.023.38-1.284.78-2.558 1.18-3.831a536.914 536.914 0 0 0 1.69-5.437c.137-1.32.281-2.638.42-3.95.075-1.01.319-2.963 0-3.903 0 .313-.918 1.414-1.096 1.722-1.256 1.826-2.391 3.721-3.454 5.61-.66 1.159-1.17 2.355-1.778 3.536-2.04 3.86-3.615 7.774-4.732 12.099-.275 1.125-.745 2.269-.812 3.464h-.104v.11h-.218c-.797-2.232-1.612-4.457-2.401-6.684-.33-1.189-.688-2.387-1.025-3.575-.818-2.18-1.753-4.25-2.473-6.466-.505-1.553-1.015-3.096-1.51-4.647-.481-1.188-.987-2.379-1.475-3.565a62.43 62.43 0 0 0-.82-2.14c-.298-.614-.604-1.232-.915-1.857-.39-1.023-.776-2.233-1.457-3.097-.173 2.423-.337 4.816-.515 7.233 0 1.72 0 3.431-.019 5.17.019 1.112.207 2.172.308 3.233.07 1.047.13 2.136.39 3.108M230.255 80.451c-.826 2.545-1.564 5.09-2.49 7.56-.277.758-.498 1.815-1.014 2.456v.109h-.2c-.33-1.155-.638-2.312-.924-3.466-.838-2.923-1.675-5.773-2.92-8.477-.762-1.513-1.535-3.04-2.291-4.573-.925-1.9-1.867-3.858-2.987-5.653-.92-1.438-2.401-2.528-3.19-4.017h-.096v-.12c-.192 0-.162.173-.183.325-.29 2.234.27 4.24.688 6.146.27 1.147.53 2.285.796 3.444.67 2.506 1.325 5.02 1.985 7.532.476 1.188.943 2.393 1.4 3.591a197.143 197.143 0 0 0 4.198 10.469c.598 1.284 1.17 2.582 1.762 3.876.35.911.708 2.018 1.323 2.786 0 .144-.039.1.099.1 1.638-2.253 3.229-4.522 4.866-6.782.294-.503.572-1 .862-1.516 2.66-4.485 4.969-9.378 6.268-14.552.216-.902.568-1.763.708-2.694.485-3.401.446-7.057.446-10.678 0-1.665-.138-3.248-.298-4.852-.063-.702.038-1.457-.222-2.059-.398.832-.766 1.636-1.153 2.442-1.453 3-2.401 6.2-3.661 9.29-.722 1.852-1.439 3.702-2.175 5.537-.515 1.265-1.068 2.53-1.597 3.776" fill-rule="evenodd"/><path d="M240.656 89.277c0 .387-.975 1.494-1.235 1.876-1.394 1.934-2.792 3.88-4.206 5.829-2.488 3.444-4.527 7.23-7.212 10.593-2.786 3.396-5.578 6.776-8.366 10.164h-.106v.12h-.114v-.12h-.097c.039-.388.07-.779.097-1.177.042-1.69.08-3.386.122-5.076.041-.529.06-1.08.09-1.61-.132-3.79-.56-7.66-1.248-11.218-.14-.896-.289-1.775-.428-2.677-.568-1.72-1.142-3.467-1.72-5.21a196.5 196.5 0 0 1-.888-3.233c-.138-.587-.228-1.306-.548-1.824-.048 1.056-.332 1.939-.517 2.94-.37 2.246-.787 4.513-1.196 6.784-.199 1.518-.216 3.087-.25 4.736-.089 2.265-.167 4.523-.226 6.797-.052 1.427.137 2.794.299 4.09.197 1.459.254 2.896.434 4.31.379 2.899.46 5.738.838 8.626.2 1.872.397 3.742.618 5.614H215c.028-.057.028-.099.055-.166a485.545 485.545 0 0 0 3.966-3.167c1.494-1.227 3.007-2.45 4.503-3.695.917-.836 1.833-1.685 2.728-2.534 1.119-.995 2.232-2.021 3.33-3.029.96-1.17 1.929-2.328 2.875-3.495 1.882-2.281 3.499-4.661 4.852-7.224.258-.708.538-1.411.816-2.122.362-.823.698-1.664 1.038-2.49.3-.893.497-1.789.737-2.703.197-.781.4-1.466.505-2.274.14-.935.587-7.011.251-7.435M11.463 117.7c.965 1.007 2.004 1.903 2.956 2.88.998 1.005 1.992 2.019 3 3.026 1.706 1.315 3.418 2.62 5.13 3.937 1.018.774 1.954 1.589 3.01 2.271 0 .157.077.118.22.118.316-4.363.617-8.706.935-13.05.497-5.716.56-11.518.56-17.57 0-3.199-.56-5.895-.82-8.845-.108-.956-.238-3.6-.676-4.209-.077 1.26-.65 2.396-.926 3.568-.527 2.15-1.326 4.147-1.845 6.253-.317 1.326-.397 2.701-.616 4.082a113.71 113.71 0 0 0-1.058 11.125c-.097 1.71-.196 3.445-.299 5.159-.036.606-.178 1.138-.099 1.731h-.117v.224c-.14 0-.14-.026-.2-.112-.478 0-4.284-6.205-4.842-7.023-1.034-1.55-2.07-3.052-3.098-4.586-1.801-2.44-3.587-4.865-5.386-7.305-1.277-1.854-2.562-3.713-3.818-5.56-1.082-1.45-2.184-2.875-3.259-4.318H.117v-.106c-.198 0-.091 1.296-.059 1.506.1 1.618.208 3.233.299 4.86.197 2.191.654 4.996 1.532 6.879a265.547 265.547 0 0 0 1.634 4.078c.479 1.057 1.178 1.96 1.766 2.948.418.703.834 1.411 1.25 2.112.868 1.033 1.746 2.062 2.603 3.099.78.934 1.553 1.882 2.321 2.828" fill-rule="evenodd"/><path d="M233.983 119.473c-.142 0-.13.04-.2.11-2.61 2.458-5.227 4.908-7.839 7.37-3.016 2.63-6.024 5.26-9.035 7.898-2.82 2.114-5.638 4.224-8.438 6.346a4487.306 4487.306 0 0 1-4.73 3.776c-.754.6-1.454 1.372-2.333 1.774v.12h-.216c.039-.219.077-.438.12-.651-.14.033-.279.07-.437.101v-.101c.832 0 2.986-6.672 3.324-7.779.688-2.19 1.357-4.393 2.03-6.573.382-1.912.76-3.808 1.168-5.698.278-1.315.547-2.67.864-3.982.14-.74.26-1.456.39-2.195.048-1.894-.139-3.844-.228-5.696-.022-.997-.162-1.97-.202-2.911-.02-.56.04-1.234-.125-1.721-1.265 2.44-2.55 4.89-3.856 7.32-1.393 3.476-2.77 6.935-4.164 10.38-.4 1.495-.799 2.99-1.217 4.48-.755 2.674-1.511 5.343-2.271 8.01-.201.922-.419 1.852-.637 2.77-.676 2.57-.918 5.18-1.374 7.888-.241 1.514-.561 3.09-.597 4.655 2.527-.985 5.05-1.964 7.568-2.961 1.247-.47 2.492-.954 3.716-1.424 1.725-.928 3.476-1.832 5.199-2.77 1.164-.614 2.342-1.224 3.54-1.864.926-.713 1.83-1.43 2.766-2.148 2.031-1.534 4.012-3.068 5.927-4.87 1.285-1.285 2.58-2.58 3.855-3.878a403.735 403.735 0 0 0 2.789-4.583c.93-1.643 1.863-3.305 2.77-4.959.458-1.453.918-2.924 1.365-4.393.148-.586.605-1.294.508-1.94v.1M29.52 148.2c1.995 1.104 4.008 2.268 6.117 3.216 1.348.53 2.702 1.03 4.068 1.544 1.275.508 2.569.997 3.835 1.497 1.005.418 2.05.915 3.165 1.136-.19-1.437-.37-2.89-.53-4.322-.415-3.77-1.014-7.355-1.99-10.88-.458-1.374-.915-2.73-1.357-4.106-.337-1.072-.676-2.132-1.015-3.205-.407-1.096-1.692-6.206-2.35-6.638a.489.489 0 0 0-.2-.065c-.28 0 0-.35.101-.45-.457-1.175-.934-2.36-1.395-3.545-1.136-3.052-2.43-6.037-3.746-8.966-.478-1.076-.955-2.13-1.424-3.216h-.13c0 2.302 0 4.612.022 6.9.178 3.826.736 7.652 1.352 11.321.29 1.737.38 3.505.82 5.156a911.72 911.72 0 0 1 2.398 7.648c.786 2.136 1.862 4.06 2.324 6.397h-.221v-.122l-8.01-6.333a4754.853 4754.853 0 0 1-7.429-5.615c-1.433-1.21-2.881-2.423-4.324-3.639-1.473-1.203-3.07-2.359-4.422-3.674-1.655-1.633-3.295-3.26-4.962-4.886-.998-.971-1.932-2.205-3.106-3.026v-.096h-.1c.28.937.548 1.862.827 2.807.21 1.097.226 2.302.647 3.307 1.696 4.144 4.544 7.71 7.789 11.058 1.017 1.154 2.033 2.321 3.07 3.494 1.29 1.04 2.607 2.074 3.903 3.1 1.155.898 2.29 1.794 3.425 2.69.958.508 1.903 1.016 2.849 1.513" fill-rule="evenodd"/><path d="M214.576 153.001c0 .142.032.103-.11.142-1.2.297-2.329.874-3.474 1.314-1.545.598-3.07 1.207-4.613 1.795-5.268 2.148-10.647 4.12-16.207 5.745-2.888.727-5.816 1.443-8.717 2.159-.863.2-2.918.5-3.534.919-.928 0-3.756 1.047-4.32.659.218 0 5.514-5.004 5.992-5.58a564.468 564.468 0 0 1 3.447-3.844c.47-.698.917-1.4 1.396-2.094.976-1.486 1.912-2.906 2.77-4.443.497-.878.997-1.764 1.491-2.649a1449.25 1449.25 0 0 1 2.312-7.252c.34-.875 1.932-8.287 1.562-8.753-.584.487-1.203.964-1.78 1.44-1.772 1.893-3.247 3.975-4.84 5.958-1.296 1.615-2.612 3.279-3.786 4.964-1.792 2.388-3.584 4.799-5.378 7.19-1.535 2.171-2.968 4.344-4.434 6.586-1.812 2.768-3.584 5.508-5.588 8.186-.736.948-1.354 2.009-2.222 2.88v.101h-.111v.117c1.515.26 3.03.542 4.523.815 1.496.24 2.982.479 4.445.716 1.116.06 2.212.141 3.317.201 1.284.094 2.518.172 3.795.24 2.37-.16 4.72-.34 7.092-.498.936-.236 1.893-.471 2.828-.695 1.119-.281 2.21-.56 3.308-.836 1.293-.48 2.55-1.05 3.805-1.56.876-.355 1.852-.672 2.65-1.15 2.57-1.574 4.88-3.527 7.302-5.402 1.95-1.513 3.812-3.196 5.41-5.18.556-.719 1.289-1.315 1.77-2.08.159 0-.038-.09-.101-.11M65.992 170.113c3.334-.366 6.444-1.153 9.708-1.572 0-.117-.038-.169-.096-.218-.421-.54-.841-1.058-1.248-1.595-.696-.877-1.393-1.773-2.08-2.648-.75-1.246-1.495-2.521-2.253-3.784-.495-.841-.996-1.674-1.471-2.516-1.458-1.919-2.883-3.862-4.345-5.783-2.96-4.204-5.917-8.33-9.006-12.453-1.094-1.464-2.27-2.82-3.386-4.273-.997-1.287-2.17-2.93-3.714-3.509 0 1.167.186 2.334.288 3.451.096.897.096 1.742.298 2.57.318 1.49 1.016 2.906 1.497 4.362.615 1.831 1.25 3.646 1.87 5.477.54.958 1.06 1.895 1.574 2.84.6 1.097 1.166 2.32 2.03 3.295 0 .18.202-.016.323-.098h.098v.218c-.183 0-.183.162-.22.32.088 0 .78 1.058.896 1.266.837 1.382 1.953 2.598 3.06 3.833 1.015 1.136 2.02 2.333 3.197 3.368.815.747 1.613 1.476 2.429 2.21.517.48 1.21.977 1.523 1.605-1.025 0-2.081-.41-3.017-.628-2.29-.516-4.582-1.115-6.793-1.706-2.569-.754-5.111-1.52-7.671-2.268-2.09-.567-4.087-1.347-6.136-1.945-2.69-.773-5.3-1.672-7.9-2.59-2.857-1.054-5.715-2.14-8.572-3.205-.183-.07-.938-.47-1.097-.208 0 .328 1.015 1.312 1.265 1.594 1.027 1.164 2.021 2.399 3.175 3.494 1.256.998 2.492 1.992 3.726 2.99 1.335 1.013 2.673 1.888 4.103 2.797.878.55 1.755 1.087 2.649 1.645 1.198.608 2.53.915 3.83 1.385 6.375 2.34 14.004 3.118 21.466 2.28M196.241 174.14c-.212.036-.43.07-.649.107-.24.032-.5.06-.756.109-.5 0-1.197.01-1.615.221-.229.019-.418.084-.65.096-.384 0-.863-.036-1.162.103-.416 0-.977-.06-1.316.119-.586 0-2.01 0-2.489.217-.381 0-.844-.045-1.176.101-2.41 0-4.783-.336-7.135-.516-1.89-.16-3.781-.317-5.692-.479-2.097-.231-4.102-.786-6.157-1.135-4.852-.828-9.621-1.865-14.444-2.68-2.015-.348-4.343-.367-6.455-.367-1.016 0-2.232.137-3.152-.123-1.12.35-2.905-.195-3.964.219-.354 0-.814 0-1.074.123-.359 0-.816-.021-1.095.112-.456 0-1.035-.071-1.395.106-.338 0-.798-.024-1.073.1-.341 0-.8-.018-1.077.116-1.374 0-2.779.482-4.025.798-.677.18-1.513.231-2.128.598-1.198 0-2.273.7-3.271 1.137-.797.317-1.555.66-2.35.996-.537.22-1.187.627-1.812.54-.619-.2-1.236-.402-1.843-.6a227.865 227.865 0 0 1-3.577-1.275 699.788 699.788 0 0 1-7.652-2.142 189.123 189.123 0 0 1-3.107-.292c-.905-.046-1.79-.134-2.708-.194-1.793-.021-3.547.112-5.269.194-1.087.043-2.16.085-3.237.123-.457.01-1.135-.08-1.516.117-.837 0-2.251-.117-2.889.224-.26.019-.517.055-.765.1-.29.039-.57.075-.85.096-.278.05-.519.083-.773.119-.24.035-.5.063-.76.11-.27.031-.576.07-.857.094-.245.036-.515.08-.755.107-.26.046-.498.088-.758.11-.359 0-.796-.022-1.076.122-.216.039-.437.057-.636.12a7.286 7.286 0 0 0-.778.098c-.24.039-.476.068-.736.096-.3.042-.577.082-.858.102-1.442 0-3.048.655-4.343 1.035-.716.2-1.435.4-2.13.598-.41 0-.866.039-1.198.197-.4 0-.874.063-1.174.23-.397 0-.777.06-1.097.21-.418 0-.952.04-1.274.216-.22.043-.448.06-.657.103-.475 0-.994-.06-1.393.119-.76 0-1.744-.161-2.372.102-.796 0-1.932-.162-2.591.115-.854 0-2.08-.177-2.807.101-3.139 0-6.057-.076-9.045-.48a639.923 639.923 0 0 1-4.969-.692c-.25-.024-.77-.158-.948.039-.034.13.178.3.25.357 1.381.919 2.748 1.83 4.113 2.758 1.175.825 2.609 1.305 3.924 1.901 1.214.588 2.451 1.298 3.776 1.697 1.066.28 2.139.53 3.216.816.826.211 1.655.4 2.49.591 1.615.164 3.39.125 5.061.125 2.808 0 5.4-.417 8.099-.617 1.944-.159 4.075-.159 5.908-.628 4.383-1.123 8.867-2.255 13.158-3.615 4.185-1.33 8.227-2.804 12.72-3.478.717-.104 1.453-.246 2.15-.355.838.05 1.675.11 2.511.18 1.814.085 3.625.247 5.3.694 1.066.27 2.143.546 3.209.829h.219v.195c-1.294.68-2.613 1.34-3.906 1.995-5.94 2.82-11.797 6.274-17.055 10.357-1.015.769-2.011 1.529-3.017 2.274-.51.367-.986.755-1.487 1.124h-.088v.112h3.437c.539 0 1.217.057 1.674-.127.517-.235 1.015-.89 1.434-1.305 1.294-1.299 2.571-2.604 3.868-3.899.793-.768 1.59-1.56 2.386-2.343a370.641 370.641 0 0 0 3.844-2.747c1.179-.935 2.473-1.855 3.767-2.57.878-.425 1.756-.876 2.64-1.295.765-.395 2.341-1.333 3.169-1.455.784-.12 2.413.789 3.12 1.1 1.433.665 3.064 1.061 4.411 1.91 1.304.815 2.497 1.896 3.695 2.856 2.509 2.006 4.941 4.03 7.253 6.59 1.152 1.26 2.619 2.335 3.593 3.705.19 0 .348-.041.551-.06.535.019 1.193.219 1.819.235 1.229-.027 2.441-.038 3.674-.055v-.12c-.453 0-1.062-.71-1.394-.978a833.939 833.939 0 0 1-5.614-4.106c-1.794-1.386-3.705-2.55-5.578-3.799a324.21 324.21 0 0 0-5.68-3.669 378.875 378.875 0 0 0-5.239-2.648c-.919-.45-2.01-.839-2.797-1.5h-.113v-.115c.363-.102.712-.204 1.087-.3 1.284-.248 2.583-.486 3.858-.757 3.382-.388 6.99-.37 10.368-.043.705.06 1.433.12 2.141.183 3.605 1.156 7.201 2.31 10.819 3.464 4.002 1.036 8.025 2.093 12.052 3.14 2.318.487 4.798.639 7.21.917 1.843.209 3.628.646 5.519.646 1.795-.167 3.59-.318 5.379-.484.805-.084 1.493-.352 2.252-.503 1.413-.347 2.808-.675 4.224-1.026 1.024-.409 2.092-.818 3.126-1.234 1.195-.436 2.531-.759 3.624-1.394l5.43-3.589v-.101c-.327.041-.65.07-.976.101-.327 0-.808-.008-1.074.123M195.092 80.995c-.15 1.672-.01 3.384-.156 5.054-.28 2.894-.685 5.653-1.156 8.412a74.72 74.72 0 0 1-11.695 28.757 69.04 69.04 0 0 1-4.78 6.336c-.798.956-1.604 1.911-2.414 2.846-.078-.005-.115-.018-.198-.039-.336-.198-.557-.497-.814-.797-.619-.617-1.24-1.284-1.855-1.921-1.435-1.503-2.865-3-4.32-4.514-.799-.755-1.579-1.491-2.273-2.37-.119-.176-.26-.32-.219-.567.039-.617 1.453-1.922 1.883-2.438.845-1.161 1.722-2.315 2.56-3.468 2.049-3.03 3.904-6.143 5.378-9.48 1.874-4.187 3.447-8.58 4.383-13.211.359-1.819.58-3.695.925-5.528.332-1.763.35-3.596.382-5.47 0-.736-.112-2.372.108-2.922 0-.12 1.074-.15 1.29-.2 2.874.021 5.74.031 8.631.034a32.345 32.345 0 0 1 2.37 0c.565.045 1.214-.15 1.714.076.236 0 .29 1.126.256 1.41zm-23.025 54.315a109.327 109.327 0 0 1-4.324 4.065c-6.755 5.959-14.943 10.338-23.172 13.355-2.39.888-4.9 1.743-7.431 2.295-1.392.328-2.785.654-4.2.992-.38 0-.859.06-1.18.21-.24.04-.494.083-.735.129-.418 0-.885.052-1.207.213-.279.04-.565.058-.866.099a8.612 8.612 0 0 1-.854.1c-.282.038-.58.077-.859.099-.317.06-.635.08-.976.14-.395 0-.864-.06-1.184.097-.41 0-.967-.057-1.284.104-.457 0-1.059-.063-1.415.11-.52 0-2.453.106-2.713-.191-.433-.517-.14-5.11-.14-6.058 0-2.65-.13-5.393.063-7.986h.1c0-.183 1.343-.112 1.625-.112 4.192-.07 8.375-.774 12.197-1.782 4.677-1.224 9.007-2.929 13.25-5.005 1.237-.615 2.55-1.252 3.729-2.01a138.728 138.728 0 0 0 4.661-3.086 68.666 68.666 0 0 0 2.05-1.594c1.097-.758 2.111-1.695 3.107-2.601 1.278-1.154 2.651-2.318 3.691-3.66 1.01.264 3.025 2.844 3.843 3.72 1.794 1.903 3.714 3.685 5.436 5.648.202.24.438.498.376.86-.078.515-1.188 1.43-1.588 1.849zm-53.675 6.486c0 .281-1.035.188-1.295.188-1.033-.07-2.02-.021-3.026-.12-2.768-.258-5.45-.558-8.067-1.09-7.558-1.517-14.543-4.527-20.84-8.61-2.252-1.464-4.441-2.988-6.481-4.782-.85-.74-2.923-2.224-3.363-3.187-.125-.29.082-.547.263-.745 1.414-1.625 3.088-3.021 4.601-4.545.938-.885 1.874-1.804 2.785-2.679.453-.279 1.15-.18 1.675-.31.55.031 1.24-.11 1.717.11.647.278 1.275.947 1.792 1.455.426.318.844.646 1.266.974 2 1.495 4.034 2.86 6.146 4.083 6.374 3.698 14.593 5.883 22.827 5.883v.104c.183 0 .103 1.146.103 1.407v8.517c0 .926.178 2.557-.103 3.347zm-.14 15.33c-.216.32-1.173.178-1.57.191-4.624.078-9.066-.63-13.266-1.385-3.229-.59-6.317-1.615-9.307-2.541-2.63-.808-5.059-1.902-7.522-2.959a72.525 72.525 0 0 1-17.88-11.279c-1.135-1.013-2.249-2.029-3.408-3.054-.452-.47-.93-.86-1.231-1.428.12 0 .1-.02.206-.096 3.279-3.24 6.546-6.466 9.805-9.703 1.203.588 2.261 1.84 3.257 2.768a42.606 42.606 0 0 0 4.74 3.687c2.88 1.943 5.719 3.886 8.865 5.337a97.487 97.487 0 0 0 8.508 3.448c3.726 1.353 8.287 2.213 12.472 2.63 1.114.08 2.228.158 3.347.229.675.008 2.559-.102 2.985.276.242.19.172.532.223.828.02.885.02 1.786.02 2.672 0 2.02-.02 4.013-.042 6.036 0 .885.22 3.704-.201 4.344zM54.406 122.86c-2.269-3.625-4.452-7.282-6.156-11.175-4.154-9.565-6.773-20.336-6.394-32.01h.097c0-.127-.036-.089.1-.089 1.018 0 2.354.179 3.23-.11 1.135.2 2.486.11 3.684.11h7.212c0 2.315.062 4.546.238 6.779.084.95.541 2.254.2 3.22-.2.602-2.011 1.312-2.589 1.656-2.01 1.186-2.194 2.355-2.848 4.392-.16.527-.541 1.275-.5 1.852.2 1.145.355 2.294.529 3.448h.127v.104c.52 0 1.177-.998 2.033-.883.837.258 1.674.554 2.512.823.766.294 1.712.448 2.4.903.41.456.806.92 1.188 1.37.386.367.765.73 1.155 1.091.486 1.048.952 2.084 1.448 3.133.534 1.087 1.077 2.162 1.616 3.23 1.177 2.223 2.652 4.348 4.076 6.468.976 1.445 2.162 2.917 3.335 4.214.662.747 1.297 1.484 1.956 2.221.077.13.156.287.116.477-.068.59-1.973 2.182-2.44 2.604-2.412 2.406-4.81 4.82-7.22 7.226-1.357 0-8.208-9.659-9.105-11.054zM42.664 69.44c.173-.932.365-1.868.544-2.802.538-3.281 1.414-6.378 2.448-9.398 2.901-8.481 6.678-15.813 12.095-23.02 2.093-2.793 4.58-5.244 6.952-7.904 1.144.822 2.073 1.934 3.088 2.956 1.453 1.458 2.901 2.918 4.344 4.374.79.769 1.992 1.621 2.493 2.597.288 0-.688.972-.819 1.133-1.096 1.307-2.38 2.423-3.444 3.752-1.578 1.954-2.932 3.991-4.325 6.012-.837 1.172-1.436 2.406-2.15 3.612-3.349 5.548-5.502 12.3-6.697 18.915a53.619 53.619 0 0 0-.777 5.924c-.08.855 0 1.872-.238 2.697 0 .293-1.097.195-1.396.204h-12.83c0-3.023.152-6.145.712-9.052zm32.461-51.7c5.877-4.25 12.53-7.316 19.415-9.606 2.68-.888 5.467-1.791 8.337-2.296 2.328-.42 4.698-.902 7.11-1.171 1.593-.15 3.169-.305 4.744-.445h3.555v14.122h-.11c0 .216-1.992.072-2.372.207-.419 0-.958-.048-1.283.101-.589 0-1.344-.101-1.825.111-.27.048-.515.081-.775.108-.322.045-.649.075-.976.12-.281.032-.559.059-.838.104-.326.033-.659.064-.976.11-.517 0-1.215.082-1.624.318-.906 0-1.773.284-2.58.47-1.076.257-2.122.49-3.147.79-7.99 2.336-15.38 5.952-21.875 11.152-1.073.856-2.112 1.687-3.168 2.639-.257.274-.536.532-.816.796-.755 0-2.33-1.951-2.91-2.508-2.41-2.396-4.818-4.798-7.253-7.194 0-1.224 8.093-7.021 9.367-7.928zm43.111 6.315c0 2.896.04 6.052-.06 8.939h-.101c0 .161-1.742.096-2.05.226-.601 0-1.316-.082-1.823.1-.27.039-.51.08-.77.108-.276.039-.577.075-.854.108-.291.044-.57.076-.859.111-.296.024-.577.075-.875.104-.337 0-.698.061-.965.221-.89 0-2.093.224-2.822.643-1.411 0-3.362.841-4.601 1.32-2.389.92-4.703 1.872-6.911 3.105-1.972 1.112-3.745 2.471-5.61 3.767-.885.603-1.703 1.281-2.51 2.012-.368.324-.785.596-1.045 1.012-.26 0-.447-.12-.617-.276-2.95-2.967-5.916-5.93-8.865-8.884-.082-.108-.173-.233-.14-.392.121-.73 4.463-3.945 5.24-4.521 7.072-5.312 15.12-8.968 23.885-10.904a47.038 47.038 0 0 1 6.575-.992c1.138-.115 2.23-.228 3.346-.339.628.09 1.871-.243 2.302.284.32.45.13 3.477.13 4.248zm2.889 37.684c.418.209.914.358 1.255.695.515.474 4.183 5.86 4.183 6.242-.04.493-.878.753-1.164 1.097h-.11c.04.024.04.053.04.067.539.917 1.006 1.864 1.453 2.795.197.438.64.917.66 1.45.006.388-.362.807-.64 1.069 0 .868.738 1.56.656 2.458-.06.63-.515 1.21-.755 1.747-.556 1.25-1.258 2.47-1.624 3.774 0 .21-.327.469-.41.664-.119.278-.29.733-.557.916-.247.15-.659.135-.977.135-1.265.014-2.27-.126-3.006.865-.183 0-.072.255-.082.429-.039.387-.077.786-.13 1.17-.226.879-.936 2.063-.448 3.05 0 .242.301.287.318.547.13.965-.416 1.877-1.292 2.146v.11h-.103c0-.413-.337-.581-.474-.897-.228-.432-.42-1.489-.282-2.01 0-.183-.076-.167-.216-.226v.105c-.14 0-.11.037-.154.14-.096.288-.187.587-.284.86-.38.652-.837.436-.957 1.381.496 0 .756-.447.866-.865h.101c.087.221.168.443.226.661.091.568-.187 1.28-.457 1.718v.105c-.428-.096-.849-.19-1.294-.298-3.596-.707-6.716-3.312-8.518-6.497-.238-.438-.887-1.155-.806-1.703.02-.298.39-.438.616-.534 1.116-.44 2.464-.668 3.645-.89 1.039-.214 2.013-.618 3.138-.642 0 .656-.365 1.463-.646 2.042v.214c.646 0 1.397.274 2.001.084.39-.137.926-1.335 1.128-1.698.536 0-1.415-1.037-1.504-1.082 0-.568 1.495-2.315 1.86-2.887.327-.544.38-1.008.38-1.754 0-.539.077-1.135-.19-1.549-.287-.466-.946-.796-1.383-1.084-.977-.705-1.963-1.396-2.93-2.112h-.11c-.568.716-1.14 1.39-1.684 2.087-1.146 1.49-2.31 2.971-3.445 4.458-.625.875-1.573 1.7-1.884 2.737h-.208c-.12-.387-.22-.792-.337-1.183-.34.071-.712.146-1.078.206 0 .568.322 1.138.495 1.638.503 1.492 1.218 2.916 2.038 4.256l1.351 2.086h.111c-.007.043-.031.06-.05.09-.467.857-1.915 2.043-2.67 2.805a669.63 669.63 0 0 0-5.02 4.998c-.796.784-1.6 1.573-2.398 2.36v.107c-.311 0-1.348-1.303-1.55-1.583-3.962-5.27-6.75-11.346-6.75-18.589h.1v-.109c1.087.383 2.172.767 3.25 1.14.723.24 1.601.085 2.35.265.932.238 1.654 1.07 2.508 1.506.298.168.717.11.977.402.418.534.738 1.335.957 1.977.53 0 1.973-.176 2.391-.445.505-.318.745-1.234 1.015-1.744.34-.664.698-1.321 1.035-2.001.478-.484.967-.965 1.457-1.434.318-.318.655-.777 1.044-.945.47-.07.904-.152 1.354-.22.09-.298.188-.586.28-.875.266-.859.647-1.59.827-2.47.017-1.894.099-3.799.137-5.708.14-.813 1.583-2.353 2.153-3.07.416-.526.825-1.046 1.244-1.578.69-.776 1.804-.976 2.68-1.42.63-.324 1.197-1.014 1.717-1.51.216-.242.577-.466.652-.767.16-.608-.239-1.453-.537-1.896-.394-.56-3.954-3.408-4.44-3.534-.657-.162-2.613 1.572-3.23 1.944-.756.452-1.692.535-2.558.763-.966.243-2.322.792-3.348.76-.746-.024-1.482-.28-2.182-.435-.496-.126-1.016-.17-1.446-.445-.365-.35-.736-.67-1.123-1.01 0-.533 1.407-1.6 1.823-1.978 3.077-2.812 7.06-4.841 11.027-5.963.974-.238 1.932-.466 2.908-.722.9-.167 1.794-.33 2.67-.503.419.017 1.066-.06 1.275.316.298.581.14 1.768.14 2.499 0 2.545-.02 5.09-.02 7.644-.043.559-.38.912-.419 1.516.239 0 .477.215.68.317.893.405 1.789.843 2.708 1.252zm-1.815-3.727c0-2.172-.018-4.332-.018-6.48 0-1.136-.032-2.309.079-3.437 5.56 0 10.72.948 14.984 3.45v.209c-.242 0-.722.665-.859.87h-.12v.108c.516 0 1.224-.556 1.832-.646v.204c-.097 0-1.167 1.21-1.296 1.405-.14 0 .399.71.55.86 0 .595-1.803 2.257-2.322 2.48-.417.077-.817.157-1.235.227-.35 0-.794-.031-1.087.098-.866 0-1.304.354-1.939.76v.096c-.317 0-.707-.148-.957-.302h-.12v-.219c.13 0 .776-1.187.875-1.395.18 0-.298-1.708-.339-2.06h-.219c0 .111-1.034 1.179-1.196 1.408h-.098c.02.024.043.06.043.084.435 1.102.236.875-.58 1.41-.21.05-.416.089-.64.12-.815 0-3.047.406-3.663.75h-.216c0 1.225-.422 1.001-1.398 1.191v-.11c-.2 0-.06-.877-.06-1.08zm.044-20.164c-.024-1.162-.201-2.577.115-3.656 5.38 0 10.21 1.079 14.782 2.672.86.291 1.917.543 2.629 1.07.443.346.51.98.957 1.393.939.825 1.872 1.672 2.81 2.495.926.885 1.905 1.952 2.981 2.613 0 .175.07.09.228.09 0-.202.577-.597.745-.738.347-.267.691-.705 1.164-.64.439.045.882.47 1.218.715a34.418 34.418 0 0 1 3.308 2.765c.58.55 1.154 1.121 1.744 1.685v.115c-.07.288-6.587 6.883-7.063 7.093-.38.152-.817.022-1.236.059-.601.023-1.463.555-1.815-.221-.529-1.259.867-1.743 1.594-2.204h.113c0-.375-.59-.455-.84-.375-.428.12-.767.452-1.215.547a1.19 1.19 0 0 0-.188-.028c-.55-.183-1.017-.883-1.474-1.284-.875-.763-2.391-.763-3.623-.679v-.221h.116c.337-.508.796-.607 1.196-.979.097-.13.208-.281.308-.424-.37-.045-.725-.101-1.104-.165-.319.1.12 1.26-1.477 1.145-.515-.048-.994-.384-1.454-.603-.897-.39-1.792-.788-2.689-1.17-3.606-1.239-7.47-2.043-11.715-1.896 0-.44-.197-.798-.197-1.306 0-2.644.126-5.234.082-7.868zm.115-18.325c1.3.05 2.584.09 3.885.144 1.576.173 3.16.364 4.744.539a60.676 60.676 0 0 1 10.923 2.814c.602.206 1.924.514 2.323 1.015.505.619.717 2.197.896 3.024.537 2.1 1.035 4.188 1.565 6.276.171.69.239 1.43.571 2.035 0 .301.616.017.733-.034 1.398-.617 2.812-1.244 4.203-1.852.659-.278 1.395-.817 2.193-.693 0 .801.916 1.48.736 2.348-.197.864-1.83 1.648-1.924 2.499-.026.508.928 1.973 1.347 2.29a762.448 762.448 0 0 0 5.657 3.204v.212c-.138 0-1.553 1.506-1.832 1.72v.126h-.217c0-.274-.399-.774-.539-.978v-.116c-.329 0-.777 1.726-.977 2.05v.118h-.081c-.01-.04-.01-.069-.01-.118-.238 0-.485-.43-.789-.49-.635-.154-1.54.106-2.148-.154-.688-.312-1.204-1.023-1.816-1.52-1.063-.79-2.127-1.603-3.204-2.402-.339-.365-.697-.721-1.056-1.085-.47-.441-1.035-1.033-1.293-1.581-.479-.982.097-2.635-.571-3.492-.419-.55-1.085-.882-1.601-1.287-1.238-.98-2.492-1.952-3.743-2.936-.583-.455-1.3-.873-1.796-1.43h-.221c0 1.145 1.596 5.869 1.138 6.558-.18.275-1.585-.307-1.812-.392a38.584 38.584 0 0 0-9.88-2.475c-1.779-.149-3.532-.31-5.283-.466-.318 0-.28-.9-.28-1.179-.076-1.6.06-3.187.06-4.859 0-2.456-.12-5.097.1-7.433zm-.098-2.699c.02-3.298.02-6.605.027-9.913.103-.91-.189-1.905.192-2.69 12.97 0 25.262 3.523 35.46 9.053 2.589 1.418 5.071 3.048 7.551 4.718 3.09 2.088 5.987 4.582 8.728 7.239.416.404 1.674 1.39 1.719 1.953.012.842-6.923 7.106-7.856 8.292-.42 0-5.301-4.977-5.419-5.524v-1.05c-.06-1.176-.017-2.402-.08-3.56-.02-.464.063-.999-.18-1.352-.454-.727-1.177-1.364-1.801-1.96-.67-.643-1.357-1.311-2.024-1.972-.488-.355-1.284-.066-1.813-.344-.626-.434-1.254-.891-1.883-1.346-.487-.24-.963-.488-1.444-.73-.337-.195-.795-.503-1.215-.531h-.197c-.719.076-1.335.415-1.984.633-1.992.736-3.993 1.484-6.004 2.208 0 .854-.064 1.667 0 2.483h-.12v.116c-.61-.233-1.237-.455-1.863-.696a49.218 49.218 0 0 0-5.47-1.645c-4.522-1.047-9.186-1.759-14.226-1.759v-.103c-.177 0-.098-1.256-.098-1.52zm27.781 71.025c.519-.451 1.043-.9 1.544-1.357.37-.15.736-.3 1.068-.44h.543c0 .893-.364 1.792-.615 2.6-.66 2.067-1.564 3.95-2.61 5.808h-.109v.105h-.11c-.078-.553-.198-1.091-.299-1.623-.148-.929-.037-2.382-1.496-1.823-.237.091-.395.844-.745 1.123-.448.37-2.718.943-3.396 1.037v-.113h-.102c0-.27.14-.53.24-.73.4-.62 1.675-.596 2.294-1.064a948.057 948.057 0 0 0 3.793-3.523zm5.959 23.753v.211c-.032 0-1.775 1.901-1.926 2.16-.305 0-.494-.428-.586-.629-.688-1.424-.708-2.88-.488-4.549 1.188.576 1.924 1.992 3 2.807zm-.75-2.26c-.12 0-.161-.047-.218-.115v.227c-.162 0-.248-.471-.378-.628-.46-.56-1.274-1.203-1.496-1.888-.1-.325-.058-.784-.1-1.166-.058-.709-.674-3.79-1.064-4.198-.626-.675-2.32.58-2.928.77-.281.034-.558.058-.83.094v-.11h-.096c0-.142 0-.142.086-.228.451-.558 1.964-1.698 2.144-2.2.339-.972-.46-2.227-.218-3.263.168-.758.773-1.47 1.154-2.108a182.5 182.5 0 0 0 1.395-2.903c.375-.986.736-1.997 1.113-3.004.27-.936.538-1.896.802-2.831.057-.078.117-.138.168-.205.409-.404 1.202-.508 1.761-.66 1.445-.396 4.323-.9 5.061-2.33.238 0-.558-1.185-.634-1.393-.194 0-.122-.081-.122-.23.486 0 1.232.847 1.602.23-.067-.604-1.563-.943-2.044-.543-.596 0-1.371-.549-1.814-.873h-.096v-.203c.799 0 1.732.075 2.474-.11 1.553.034 3.088 0 4.737 0 .699 0 1.375.127 2.045 0v.11c.144 0 .144.075.188.22.231.906.076 2.075.038 3.001-.087 2.033-.198 4.01-.616 5.918-.755 3.45-1.655 6.718-2.91 9.9-1.294 3.305-3.229 6.3-5.258 9.253-.644.893-1.347 2.305-2.33 2.86 0 .41-1.476-1.212-1.616-1.394zm3.863-63.066c.063-.472 1.557-1.9 1.973-2.282.739.149 1.256.694 1.855 1.149.728.523 1.463 1.057 2.19 1.583.489.484.997.941 1.498 1.429.735.625 1.27 1.53 2.107 2.055.442.242 2.352.442 2.852.242.486-.194 1.65-1.65 2.12-1.36.469.244 1.292 2.048 1.574 2.575 2.459 4.679 4.235 9.48 5.587 14.767.323 1.256 2.155 10.957 1.376 11.79-.457.482-11.693.208-13.101.17v-.106c-.178 0-.087-.164-.087-.335-.043-1.373-.259-2.687-.42-3.978-.276-2.307-.883-4.421-1.412-6.584-.24-.795-.46-1.582-.7-2.376-.117-1.444 1.576-2.336 1.017-3.868v-.236h-.11v.12c-.127 0-1.183 1.398-1.506 1.624v.106h-.116v-.756c-.14.044-.278.068-.428.111-.178-.411-.386-.83-.598-1.224-.699-1.35-1.167-2.978-2.091-4.164v-.121c.207 0 .368.227.547.328 0 .147-.042.112.097.112 0-.067.939-1.081 1.067-1.305h.113c-.016-.027-.02-.055-.041-.07-.859-1.489-1.555-2.988-2.611-4.39-.339-.443-.617-.951-1.059-1.303-.537-.407-1.23-.436-1.79-.797-.14 0-.099.026-.099-.124.177 0 .38-.43.467-.583.688-1.11-.368-1.23-.271-2.199zm-2.837 5.526c.248.329.529.784.928.966.678.267 1.434.084 1.972.667.496.553.896 1.232 1.314 1.844 1.096 1.64 2.015 3.325 2.891 5.083.395.828.915 1.69 1.155 2.615.096.426-.082 1.037-.222 1.412v.099h.203c0-.16.124-.25.219-.335v-.103h.218c0 .154-.041.103.111.103l.207.787c.058.479-.082.948-.207 1.376h.207c0 .19.317.084.437.21.14.223.241.432.368.67.787 2.774 1.447 5.533 1.705 8.612.039.743.219 1.614.078 2.36.182 0 .038.12 0 .226-1.231 0-2.468.098-3.764.098-.619 0-1.514-.204-2.062 0-.786 0-3.613.075-4.085-.255-.375-.262-1.164-2.275-1.245-2.768-.14-.806.46-5.36.856-5.77.56-.65 1.684-.744 2.432-1.153.38-.212.469-.731.786-1.01.41-.383 1.066-.26 1.526-.568.529-.568 1.033-1.147 1.573-1.73 0-.13-.041-.154-.121-.223v.125c-.375 0-.695.47-1.094.563-.657.139-1.364-.101-2.022-.14v-.115h-.112c0-.537 1.276-1.604 1.276-2.375-.018-.466-.607-.891-.924-1.214-.43-.435-1.028-1.242-1.583-1.46-.437-.18-.977-.108-1.459-.13-1.134-.01-2.537.18-3.525-.19-.597-.224-1.193-1.556-1.67-2.057-.582-.596-1.515-1.155-2.251-1.514v-.112c-.183 0-.111-.072-.111-.212.668 0 1.224.14 1.852.212 0-.984-1.443-.822-2.043-1.186h-.12c0-.455 5.082-4.982 5.719-5.816.31.178.557.432.736.741.139 0 .13-.033.13.123-.207 0-.486.581-.66.752 0 .282.231.558.38.792zm-33.797 86.646v-9.924h.1c0-.187.756-.127.958-.137 1.987-.188 4.042-.347 5.956-.686.734-.14 1.573-.182 2.252-.479h.096c0 .357 3.406 5.649 3.805 5.906.895.579 2.094.847 3.108 1.213 1.434.509 2.87 1.006 4.284 1.517.219-.01.38-.01.546-.029.789-.182 1.785-.378 2.464-.807 1.233-.779 2.37-2.204 3.526-3.219.716-.666 1.443-1.354 2.17-2.024.577-.664.769-2.208 1.02-3.085.586-2.12 1.17-4.235 1.769-6.368.16-.677.337-1.372.519-2.05.037-.986-.968-2.111-.638-3.06.139-.447 1.915-2.25 2.334-2.429v-.11c.934.42 1.909 1.655 2.636 2.43 2.298 2.352 4.572 4.704 6.865 7.053 0 .817-5.332 5.382-6.219 6.096-5.357 4.284-11.254 7.722-17.648 10.022-1.853.658-3.724 1.298-5.677 1.776-.79.197-2.433.392-3.02.773-.567 0-1.267.08-1.724.32-.216.041-.438.06-.644.11-.212.038-.433.07-.65.109-.26.028-.52.06-.746.098-.289.041-.589.071-.885.102-.332 0-.789 0-1.068.12-.24.038-.51.06-.748.109-.508 0-1.095-.06-1.513.107-.56 0-1.373-.12-1.833.12-.399 0-.837 0-1.198-.12a.34.34 0 0 0-.12-.047c-.296-.948-.077-2.361-.077-3.407zm9.663-14.556c.098 1.158.139 2.033-.98 2.411-.295.101-.615.2-.935.279-.416 0-.955.044-1.282.223a19.84 19.84 0 0 1-.657.097c-.29.05-.57.078-.849.12-.318.028-.66.07-.977.112-.279.028-.577.067-.865.088-.56 0-1.367-.112-1.824.117-.376-.039-.736-.067-1.097-.117-.219 0-.178-.33-.197-.528v-6.784c.162 0 .318-.141.418-.216 1.583.007 3.171.007 4.744.033.606-.026 1.95-.156 2.42.162.586.385.875 1.336 1.203 1.935.3.646.789 1.313.878 2.068zm-12.53-21.368c-.717.386-1.376 1.318-1.925 1.925-.745.81-1.5 1.635-2.261 2.45-.418.675-.495 1.555-.938 2.224v.104c-.935 0-2.002-.61-2.829-.922a30.696 30.696 0 0 1-7.745-4.346c-1.018-.781-1.877-1.734-2.911-2.492v-.115c.1-.476 9.386-9.887 10.141-10.233V91c1.415 1.132 2.709 2.272 4.323 3.013.537.21 1.094.419 1.624.638.827.21 2.995.404 3.488 1.04.385.519.026 1.819-.15 2.326-1.476 0-2.272-.672-2.376 1.295-.017.37-.096.906.122 1.195.297.245.6.48.898.703.197.23.394.45.577.68 0 .15-.02.117.13.117 0-.602.977-.964 1.323-1.27.539-.472.679-1.285 1.116-1.795.222-.237.488-.333.767-.43 1.307-.51 1.364.362 2.42.591.4 0 .777 0 1.167.021.32.06.647.13.964.188 0-.269.292-.552.43-.766.386 0 .67.49.845.766.52-.045 1.009-.086 1.525-.138.73.052 1.066 1.052 1.186 1.65-.437 0-2.4.615-2.727.847-.222.219-.4.43-.602.639-.139.088-.276.153-.433.228-.64 0-2.273.14-2.63-.273-.162-.336-.343-.682-.511-1.026v-.094c-.606.16-1.223.333-1.843.503-1.034.242-2.252.4-3.165.877zm-28.51 13.281c.915 0 3.327-.01 4.022-.335.58-.26.948-.977 1.297-1.47.211-.286.517-.585.478-.981-.168-1.159-3.006-3.755-2.828-4.732.076-.518 1.274-1.526 1.713-1.922 1.395-1.419 2.759-2.838 4.154-4.25.088.029.17.055.269.1.739.344 1.33 1.14 1.934 1.669 1.003.76 1.99 1.513 3.006 2.27 1.663 1.068 3.407 2.034 5.218 2.779 1.155.427 2.353.839 3.469 1.266.12.073.219.135.318.198.24.343.29.888.36 1.304.236 1.216.476 2.43.714 3.647.06.171.138.338.2.502.416.333.83.664 1.246 1.01.707.662 1.396 1.35 2.102 1.992.277.232.557.47.857.72.476.218 1.176.218 1.753.218v7.432h-.103c0 .198-.664.117-.851.117-2.604 0-5.182-.247-7.573-.734-6.364-1.29-12.32-3.546-17.512-7.193-1.474-1.039-2.8-2.21-4.242-3.286v-.32zM70.74 79.586c0 1.233-2.25 3.264-3.088 4.233-.866.974-.724 2.732-1.174 3.929-.21.557-1.059.74-1.554.915-.815.28-1.621.765-2.49.903-1.503.214-3.038-.176-4.535-.176 0-.406-.25-1.142-.288-1.616a273.322 273.322 0 0 0-.26-3.667c-.096-1.4-.26-3.148 0-4.522h13.39zm13.211-31.418c-.67.787-1.436 1.413-2.064 2.23-.808 1.04-1.623 2.105-2.458 3.143-1.319 2.039-2.594 4.063-3.686 6.221-.408.852-.818 1.718-1.236 2.56-.1 0-.197.497-.24.627-.515 1.425-1.025 2.844-1.535 4.253-.216.92-.416 1.848-.66 2.754-.692 2.6-1.212 5.514-1.212 8.439h-.12c0 .173-1.133.098-1.405.098H57.352c0-10.548 3.589-20.1 8.17-28.366.797-1.324 1.572-2.626 2.37-3.926 1.544-2.218 3.248-4.378 5.138-6.392.82-.865 1.636-1.722 2.454-2.602.925.336 2.07 1.758 2.779 2.498 1.392 1.454 2.885 2.779 4.273 4.254.775.832 2.237 1.818 2.646 2.838-.175 0-1.063 1.156-1.23 1.371zm3.885 1.041c.885.88 1.734 1.802 2.61 2.684 1.113 1.1 2.17 2.188 3.285 3.292.438.464 1.087.95 1.376 1.544-.149.03-.289.07-.442.106-1.295 0-3.002-.227-4.181.068-.755.18-1.773 1.026-2.43 1.481-.678.452-1.337.9-2.013 1.35-.914.88-1.814 1.765-2.71 2.657a813.385 813.385 0 0 1-3.108 5.112c-.179 0-.099.164-.099.33.238 0 .416.312.416.53 0 .718-.936 1.817-1.212 2.515-.255.878-.51 1.782-.775 2.691-.26.797-1.128 4.422-1.597 4.766-.458.322-4.063.158-4.92.158v-.098c-.218 0-.1-.794-.078-.967.358-2.728.617-5.29 1.332-7.799.837-2.97 1.732-5.833 3.108-8.537.36-.781.736-1.573 1.116-2.344 1.179-2.075 2.49-4.016 3.955-5.955.418-.586.849-1.176 1.306-1.753 1.036-1.12 2.09-2.247 3.168-3.375.774.198 1.313.982 1.893 1.544zm30.22-2.372c-.188.359-.86.236-1.165.398-.32.036-.647.07-.979.101-.287.048-.565.084-.864.12-.22.033-.418.06-.64.11-1.092 0-2.15.402-3.145.691-4.104 1.155-7.828 3.026-11.157 5.708-1.035.88-2.04 1.768-3.057 2.643v.121h-.111c-.74-.606-1.393-1.36-2.08-2.033-1.206-1.25-2.462-2.499-3.676-3.75-.648-.651-1.297-1.3-1.932-1.963-.72-.67-1.575-1.351-2.115-2.186-.139 0-.12.04-.12-.098.162 0 .222-.135.31-.239 2.103-2.18 4.602-3.781 7.044-5.35.457-.3.916-.594 1.393-.893 4.305-2.282 8.79-4.149 13.787-5.137 1.434-.287 2.926-.553 4.422-.664.738-.08 1.436-.152 2.174-.223h2.03c0 3.256.061 6.446.02 9.699-.02.788.139 2.333-.14 2.945zm-45.324 74.826c-.885-1.075-1.79-2.133-2.709-3.208a74.145 74.145 0 0 1-5.654-8.794c-.64-1.172-1.557-2.667-1.814-3.99.175 0 .377-.135.536-.221.158.054.341.112.515.166.22.167.39.9.763 1.26a935.075 935.075 0 0 0 5.118 4.688c2.153 1.89 5.12 1.513 7.688 2.597.96.411 1.643 1.604 2.65 1.885.439.029.917.06 1.365.08 0 .4-6.226 6.613-7.005 7.012v-.108c-.563-.28-1.015-.887-1.453-1.367zm13.23-24.806c-.347-1.499-1.496-2.719-1.843-4.236-.288-1.227.188-2.601.048-3.878-.118-1.07-1.075-1.939-1.414-2.922-.12-.304.022-.648-.04-.96-.157-.804-.316-1.648-.686-2.344-.926-1.2-1.843-2.395-2.78-3.58.519 0 .826-.713 1.235-.892.698-.297 1.655-.432 2.43-.514v.217c-.2 0-.417.279-.515.42-.183 0-.022.385.02.544.258 1.145.518 2.307.778 3.456.078.689-.103 1.336-.062 2.048h2.588c-.317-.618-.635-1.22-.948-1.848-.226-.608.313-1.229.292-1.818-.008-1.16-.778-2.333-.845-3.548h-.331c0 .152-.188.127-.328.147-.318.019-.47-.244-.626-.494-.16-.327-.35-.656-.519-.99-.11-.597 1.174-1.4 1.592-1.689 1.05.07 2.579.21 3.089 1.256.202.404.202.945.26 1.433.068.443.26 1.05.019 1.465-.33.52-1.179.823-1.655 1.13.024.061.024.13.042.2.079.328.278.852.598 1.035.41.233 1.345-.248 1.51.298.2 1.472.381 2.93.583 4.385.644 3.495 1.941 7.296 3.78 10.22 1.18 1.834 2.455 3.575 3.826 5.323.1.132.202.322.192.507-.031.47-.707.917-1.005 1.235-1.04 1.138-2.153 2.341-3.32 3.364-.485.503-.976.98-1.443 1.461-.236 0-.38-.219-.52-.367-.866-1.239-1.75-2.482-2.607-3.742-.44-.596-1.148-1.13-1.396-1.828-.12-.3-.06-.735-.038-1.068.058-1.073.274-2.427.038-3.426zm78.153 24.559v-.102c-.915-.544-1.574-1.502-2.292-2.25-1.744-1.784-3.487-3.578-5.218-5.36-.389-.437-1.645-1.392-1.682-1.91 0-.05.008-.11.026-.172.152-.633 1.136-1.56 1.555-2.118 1.296-1.734 2.504-3.487 3.608-5.346 1.155-2.003 2.01-4.12 2.896-6.265.463-1.135.977-2.33 1.268-3.557.3-1.145.59-2.3.877-3.44.159-.82.319-1.65.496-2.475.058-.64.15-1.297.198-1.939.182-1.513.321-3.067.4-4.653.042-.625-.059-1.334.1-1.907a.605.605 0 0 1 .238-.337v-.11c3.256 0 6.923-.164 10.262.05.844.06 1.93-.24 2.672.15.156 0 .116-.015.116.108-.116 2.566-.082 4.971-.359 7.442-.239 1.735-.507 3.45-.748 5.174-.327 2.276-1.155 4.527-1.763 6.704-1.494 5.524-4.202 10.604-7.209 15.368-.76 1.195-1.665 2.273-2.473 3.43-.616.853-1.954 2.948-2.867 3.413 0 .13.04.102-.101.102zm9.92-93.261c.918.682 1.717 1.642 2.412 2.546.926 1.163 1.932 2.276 2.808 3.455a83.44 83.44 0 0 1 11.218 20.216c1.235 3.241 2.014 6.66 2.891 10.1.323 1.32 2.228 13.008 1.512 13.762-.38.384-2.95.194-3.607.175-2.112.01-4.221.02-6.354.024-1.176-.053-2.711-.168-3.876.06 0-.148-.208-.303-.246-.448-.062-.389-.102-.78-.162-1.166-.356-5.741-1.494-11.026-3.15-16.082-.386-1.14-.777-2.29-1.18-3.44-1.009-2.146-1.925-4.325-3.002-6.416-.386-.768-1.415-1.986-1.415-2.854 0-.706 2.093-2.091 2.57-2.688.138 0 .13.034.13-.1-.19 0-.14-.039-.208-.131-.599-.936-1.592-1.699-2.352-2.495-2.001-2.034-3.984-4.084-5.975-6.109h-.102c0-.56 7.173-7.447 8.088-8.41zm21.925 46.26c-.176-1.519-.368-3.04-.545-4.548-.847-5.568-1.964-10.937-3.907-15.967-.287-.733-.616-1.456-.936-2.177-5.217-13.092-14.384-24.872-26.097-33.656-1.856-1.403-3.767-2.8-5.778-3.916-2.102-1.211-4.204-2.458-6.456-3.462-2.766-1.246-5.594-2.336-8.477-3.424a62.879 62.879 0 0 0-12.65-3.254 91.314 91.314 0 0 0-10.458-.887c-.85-.03-1.485-.31-2.37-.31-.211.11-.418.218-.65.31-.798 0-2.368-.164-3.006.115-.758 0-2.588-.031-3.127.22-.361 0-.799-.012-1.078.097-.26.041-.51.088-.755.116-.359 0-.796-.021-1.097.103-.419 0-.938.03-1.275.22-.478 0-1.044.016-1.415.228-.237.017-.497.06-.748.106-.208.028-.427.06-.647.094-.22.041-.428.081-.654.11-.738 0-1.397.258-2.044.404-1.506.323-3 .718-4.455 1.164-6.033 1.855-11.633 4.176-17.112 7.198-1.634.921-3.356 1.842-4.922 2.944-3.402 2.396-6.653 4.914-9.86 7.813-.286.25-.568.45-.974.333-.02 0-.05 0-.098-.018 0 .313-.499.464-.422 1.097-.12 0-4.282 4.601-4.69 5.11-1.025 1.286-2.044 2.56-3.06 3.842-3.498 4.997-6.714 10.016-9.032 15.596-2.274 5.505-4.414 11.524-5.31 17.703-.459 3.2-1.01 6.517-1.058 9.926-.18 10.129 1.016 18.88 3.887 27.523a84.487 84.487 0 0 0 4.113 10.042c.506.987 1.025 1.992 1.536 2.99 1.115 1.75 2.08 3.604 3.218 5.338 2.228 3.365 4.739 6.662 7.52 9.698 1.183 1.294 2.371 2.594 3.663 3.765a47.8 47.8 0 0 0 1.527 1.396c.496.47 1.126.896 1.574 1.454h.098v.114h.108c.04-.153.073-.292.11-.442h.12v.112c.141 0 .088-.042.098.099.043.247.062.409.183.6.356.514 1.024.874 1.51 1.272a80.387 80.387 0 0 0 4.147 3.067c5.28 3.667 11.693 7.043 17.79 9.126 5.649 1.931 11.472 3.425 17.782 4.136 17.18 1.94 34.71-2.256 47.791-10.152 3.536-2.151 7.2-4.422 10.387-7.234 2.112-1.841 4.146-3.724 6.1-5.734.697-.719 1.39-1.438 2.069-2.133 7.001-8.209 12.44-16.972 15.859-26.987.656-1.902 1.377-3.88 1.83-5.865 1.864-8.049 2.631-16.36 2.143-25.416" fill-rule="evenodd"/><path d="M298.297 154.635c-4.036 0-7.098-2.752-7.098-6.847v-13.137h3.006v13c0 2.645 1.615 4.286 4.092 4.286 2.478 0 4.119-1.641 4.119-4.286v-13h3.008v13.137c0 4.095-3.09 6.847-7.127 6.847M322.467 154.468l-9.158-13.943v13.943h-3.006V134.65h2.756l9.158 13.918v-13.918h3.007v19.817h-2.757M330.412 154.468V134.65h3.007v19.817h-3.007M345.31 137.35v17.118h-3.005V137.35h-5.461v-2.7h13.921v2.7h-5.456M354.195 154.468V134.65h12.665v2.7h-9.656v5.792h8.239v2.67h-8.239v5.955h9.656v2.7h-12.665M381.01 138.687c-.834-.92-1.946-1.336-3.367-1.336h-3.644v14.417h3.644c1.421 0 2.533-.417 3.368-1.336 1.032-1.141 1.058-3.281 1.058-6.01 0-2.727-.026-4.594-1.058-5.735zm2.06 13.92c-1.251 1.249-3.062 1.86-5.122 1.86h-6.959v-19.816h6.959c2.06 0 3.87.612 5.121 1.864 2.147 2.144 2.004 5.04 2.004 7.907 0 2.866.143 6.04-2.004 8.184M408.388 154.468l-9.156-13.943v13.943h-3.01V134.65h2.757l9.158 13.918v-13.918h3.007v19.817h-2.756M422.512 139.132l-3.092 8.797h6.099zm5.203 15.336l-1.364-3.979h-7.823l-1.361 3.979h-3.202l7.267-19.817h2.42l7.267 19.817h-3.204M438.777 137.35v17.118h-3.006V137.35h-5.459v-2.7h13.921v2.7h-5.456M447.664 154.468V134.65h3.007v19.817h-3.007M465.207 138.408c-.695-.75-1.783-1.224-2.952-1.224-1.17 0-2.256.475-2.951 1.224-.975 1.057-1.17 2.17-1.17 6.153 0 3.98.195 5.095 1.17 6.152.695.75 1.781 1.224 2.95 1.224 1.17 0 2.258-.474 2.953-1.224.972-1.057 1.166-2.172 1.166-6.152 0-3.984-.194-5.096-1.166-6.153zm2.282 14.112c-1.366 1.365-3.12 2.115-5.234 2.115-2.116 0-3.84-.75-5.206-2.115-1.948-1.948-1.918-4.145-1.918-7.959s-.03-6.014 1.918-7.962c1.366-1.363 3.09-2.118 5.206-2.118 2.114 0 3.868.755 5.234 2.118 1.946 1.948 1.891 4.148 1.891 7.962s.055 6.011-1.89 7.959M486.007 154.468l-9.155-13.943v13.943h-3.007V134.65h2.754l9.16 13.918v-13.918h3.004v19.817h-2.756M499.212 154.635c-2.977 0-5.119-.695-7.015-2.618l2.007-1.97c1.445 1.445 3.03 1.89 5.065 1.89 2.59 0 4.091-1.114 4.091-3.034 0-.864-.248-1.588-.78-2.063-.5-.47-1-.667-2.17-.83l-2.338-.34c-1.616-.22-2.893-.778-3.757-1.585-.974-.917-1.448-2.17-1.448-3.784 0-3.453 2.504-5.82 6.624-5.82 2.617 0 4.456.67 6.15 2.258l-1.918 1.893c-1.227-1.172-2.643-1.533-4.315-1.533-2.336 0-3.619 1.338-3.619 3.088 0 .726.224 1.368.751 1.838.5.448 1.31.779 2.227.92l2.257.335c1.836.279 2.867.721 3.701 1.475 1.084.948 1.612 2.367 1.612 4.065 0 3.645-2.977 5.815-7.125 5.815M517.068 154.468V134.65h3.007v19.817h-3.007M537.42 154.468l-9.155-13.943v13.943h-3.009V134.65h2.757l9.158 13.918v-13.918h3.006v19.817h-2.757M548.372 137.35v6.042h8.239v2.699h-8.239v8.377h-3.007V134.65h12.664v2.7h-9.657M570.452 138.408c-.696-.75-1.78-1.224-2.95-1.224-1.171 0-2.255.475-2.951 1.224-.974 1.057-1.171 2.17-1.171 6.153 0 3.98.197 5.095 1.17 6.152.697.75 1.78 1.224 2.953 1.224 1.169 0 2.253-.474 2.949-1.224.97-1.057 1.17-2.172 1.17-6.152 0-3.984-.2-5.096-1.17-6.153zm2.283 14.112c-1.364 1.365-3.12 2.115-5.232 2.115-2.119 0-3.844-.75-5.207-2.115-1.947-1.948-1.921-4.145-1.921-7.959s-.026-6.014 1.921-7.962c1.363-1.363 3.088-2.118 5.207-2.118 2.112 0 3.868.755 5.232 2.118 1.946 1.948 1.893 4.148 1.893 7.962s.053 6.011-1.893 7.959M586.552 137.35h-4.456v6.209h4.456c2.003 0 3.367-1.143 3.367-3.091 0-1.95-1.364-3.117-3.367-3.117zm3.477 17.118l-4.174-8.35h-3.759v8.35h-3.007V134.65h7.684c3.759 0 6.15 2.418 6.15 5.789 0 2.84-1.727 4.648-3.951 5.263l4.564 8.765h-3.507M611.805 154.468v-13.246l-4.564 9.655h-2.225l-4.673-9.655v13.246h-3.011V134.65h3.01l5.787 12.33 5.676-12.33h3.007v19.817h-3.007M626.157 139.132l-3.093 8.797h6.097zm5.203 15.336l-1.364-3.979h-7.823l-1.361 3.979h-3.204l7.267-19.817h2.42l7.266 19.817h-3.201M642.42 137.35v17.118h-3.004V137.35h-5.46v-2.7h13.92v2.7h-5.456M651.305 154.468V134.65h3.01v19.817h-3.01M668.85 138.408c-.697-.75-1.78-1.224-2.95-1.224-1.172 0-2.257.475-2.955 1.224-.972 1.057-1.168 2.17-1.168 6.153 0 3.98.196 5.095 1.168 6.152.698.75 1.783 1.224 2.955 1.224 1.17 0 2.253-.474 2.95-1.224.97-1.057 1.169-2.172 1.169-6.152 0-3.984-.199-5.096-1.17-6.153zm2.282 14.112c-1.364 1.365-3.12 2.115-5.232 2.115-2.12 0-3.844-.75-5.208-2.115-1.945-1.948-1.92-4.145-1.92-7.959s-.025-6.014 1.92-7.962c1.364-1.363 3.088-2.118 5.208-2.118 2.112 0 3.868.755 5.232 2.118 1.947 1.948 1.893 4.148 1.893 7.962s.054 6.011-1.893 7.959M689.65 154.468l-9.157-13.943v13.943h-3.006V134.65h2.757l9.157 13.918v-13.918h3.007v19.817h-2.757M711.628 137.35h-4.34v6.597h4.34c2.087 0 3.507-1.195 3.507-3.283 0-2.087-1.42-3.313-3.507-3.313zm.168 9.326h-4.508v7.792h-3.01V134.65h7.518c3.868 0 6.344 2.56 6.344 6.013 0 3.45-2.476 6.012-6.344 6.012M731.15 138.408c-.695-.75-1.78-1.224-2.95-1.224-1.172 0-2.256.475-2.95 1.224-.975 1.057-1.171 2.17-1.171 6.153 0 3.98.196 5.095 1.17 6.152.695.75 1.779 1.224 2.951 1.224 1.17 0 2.255-.474 2.95-1.224.971-1.057 1.169-2.172 1.169-6.152 0-3.984-.198-5.096-1.17-6.153zm2.282 14.112c-1.363 1.365-3.12 2.115-5.232 2.115-2.116 0-3.843-.75-5.208-2.115-1.945-1.948-1.919-4.145-1.919-7.959s-.026-6.014 1.919-7.962c1.365-1.363 3.092-2.118 5.208-2.118 2.112 0 3.87.755 5.232 2.118 1.947 1.948 1.893 4.148 1.893 7.962s.054 6.011-1.893 7.959M747.25 137.35h-4.453v6.209h4.454c2.001 0 3.366-1.143 3.366-3.091 0-1.95-1.365-3.117-3.366-3.117zm3.478 17.118l-4.176-8.35h-3.755v8.35h-3.009V134.65h7.683c3.76 0 6.15 2.418 6.15 5.789 0 2.84-1.726 4.648-3.952 5.263l4.566 8.765h-3.507M764.74 137.35v17.118h-3.005V137.35h-5.458v-2.7h13.918v2.7h-5.455M778.139 139.132l-3.095 8.797h6.097zm5.202 15.336l-1.365-3.979h-7.823l-1.36 3.979h-3.205l7.268-19.817h2.421l7.264 19.817h-3.2M789.361 154.468V134.65h3.01v17.117h9.546v2.7h-12.556M821.385 138.408c-.694-.75-1.78-1.224-2.952-1.224-1.169 0-2.253.475-2.949 1.224-.976 1.057-1.17 2.17-1.17 6.153 0 3.98.194 5.095 1.17 6.152.696.75 1.78 1.224 2.95 1.224 1.171 0 2.257-.474 2.951-1.224.975-1.057 1.167-2.172 1.167-6.152 0-3.984-.192-5.096-1.167-6.153zm2.283 14.112c-1.364 1.365-3.117 2.115-5.235 2.115-2.117 0-3.841-.75-5.205-2.115-1.945-1.948-1.92-4.145-1.92-7.959s-.025-6.014 1.92-7.962c1.364-1.363 3.088-2.118 5.205-2.118 2.118 0 3.871.755 5.235 2.118 1.948 1.948 1.893 4.148 1.893 7.962s.055 6.011-1.893 7.959M842.188 154.468l-9.159-13.943v13.943h-3.005V134.65h2.756l9.16 13.918v-13.918h3.004v19.817h-2.756M305.977 187.89v-13.25l-4.565 9.659h-2.224l-4.675-9.66v13.252h-3.009v-19.819h3.01l5.787 12.33 5.676-12.33h3.007v19.819h-3.007M320.94 188.057c-4.037 0-7.099-2.758-7.099-6.846v-13.139h3.004v12.997c0 2.647 1.618 4.287 4.095 4.287 2.477 0 4.117-1.64 4.117-4.287v-12.997h3.007v13.139c0 4.088-3.088 6.846-7.124 6.846M332.945 187.89v-19.818h3.007v17.117h9.548v2.702h-12.555M353.41 170.77v17.12h-3.003v-17.12h-5.459v-2.698h13.919v2.699h-5.456M362.299 187.89v-19.818h3.006v19.819H362.3M370.487 187.89v-19.818h3.006v17.117h9.548v2.702h-12.554M392.653 172.552l-3.092 8.799h6.096zm5.203 15.339l-1.364-3.983h-7.82l-1.364 3.983h-3.201l7.266-19.819h2.42l7.267 19.819h-3.204M408.916 170.77v17.12h-3.004v-17.12h-5.459v-2.698h13.919v2.699h-5.456M417.804 187.89v-19.818h12.665v2.699h-9.658v5.79h8.24v2.673h-8.24v5.955h9.658v2.702h-12.665M442.06 170.77h-4.453v6.206h4.453c2.004 0 3.368-1.139 3.368-3.088 0-1.948-1.364-3.117-3.368-3.117zm3.479 17.12l-4.174-8.351h-3.758v8.352h-3.008v-19.819h7.682c3.759 0 6.152 2.42 6.152 5.79 0 2.838-1.725 4.647-3.953 5.26l4.567 8.769h-3.508M459.023 172.552l-3.092 8.799h6.097zm5.205 15.339l-1.367-3.983h-7.82l-1.364 3.983h-3.202l7.268-19.819h2.42l7.266 19.819h-3.201M470.25 187.89v-19.818h3.007v17.117h9.546v2.702h-12.554M492.919 187.89v-19.818h12.664v2.699h-9.656v5.79h8.238v2.673h-8.238v5.955h9.656v2.702h-12.664M521.876 187.89l-9.155-13.945v13.946h-3.009v-19.819h2.757l9.16 13.917v-13.917h3.004v19.819h-2.757M536.225 187.89h-2.341l-6.515-19.818h3.12l4.564 14.417 4.566-14.417h3.173l-6.567 19.819M545.527 187.89v-19.818h3.009v19.819h-3.01M561.177 170.77h-4.453v6.206h4.453c2.006 0 3.37-1.139 3.37-3.088 0-1.948-1.364-3.117-3.37-3.117zm3.48 17.12l-4.176-8.351h-3.757v8.352h-3.007v-19.819h7.683c3.757 0 6.15 2.42 6.15 5.79 0 2.838-1.725 4.647-3.951 5.26l4.562 8.769h-3.504M581.312 171.83c-.695-.753-1.78-1.224-2.95-1.224-1.17 0-2.255.471-2.95 1.224-.975 1.058-1.17 2.17-1.17 6.151 0 3.98.195 5.094 1.17 6.148.695.756 1.78 1.227 2.95 1.227 1.17 0 2.255-.47 2.95-1.227.975-1.054 1.167-2.169 1.167-6.148 0-3.98-.192-5.093-1.167-6.15zm2.283 14.112c-1.363 1.364-3.118 2.115-5.234 2.115s-3.838-.75-5.206-2.115c-1.946-1.95-1.919-4.149-1.919-7.96 0-3.815-.027-6.014 1.919-7.962 1.368-1.367 3.09-2.117 5.206-2.117 2.116 0 3.871.75 5.234 2.117 1.948 1.948 1.893 4.147 1.893 7.961 0 3.812.055 6.01-1.893 7.961M602.115 187.89l-9.158-13.945v13.946h-3.006v-19.819h2.756l9.16 13.917v-13.917h3.004v19.819h-2.756M624.533 187.89v-13.25l-4.565 9.659h-2.225l-4.676-9.66v13.252h-3.007v-19.819h3.007l5.788 12.33 5.678-12.33h3.007v19.819h-3.007M632.699 187.89v-19.818h12.668v2.699h-9.658v5.79h8.239v2.673h-8.239v5.955h9.658v2.702h-12.668M661.661 187.89l-9.157-13.945v13.946h-3.01v-19.819h2.757l9.161 13.917v-13.917h3.004v19.819h-2.755M676.312 170.77v17.12h-3.004v-17.12h-5.457v-2.698h13.917v2.699h-5.456M689.708 172.552l-3.09 8.799h6.098zm5.207 15.339l-1.367-3.983h-7.82l-1.363 3.983h-3.202l7.266-19.819h2.42l7.267 19.819h-3.201M700.935 187.89v-19.818h3.009v17.117h9.545v2.702h-12.554M729.787 172.552l-3.092 8.799h6.096zm5.201 15.339l-1.363-3.983h-7.82l-1.364 3.983h-3.201l7.267-19.819h2.418l7.268 19.819h-3.205M752.59 185.801c-1.502 1.587-3.366 2.256-5.453 2.256-2.062 0-3.842-.75-5.206-2.115-1.95-1.95-1.919-4.149-1.919-7.96 0-3.815-.03-6.014 1.919-7.962 1.364-1.367 3.089-2.117 5.206-2.117 4.202 0 6.651 2.758 7.208 6.154h-3.036c-.5-2.172-1.948-3.45-4.172-3.45-1.169 0-2.228.47-2.926 1.223-.974 1.058-1.195 2.17-1.195 6.151 0 3.98.221 5.12 1.195 6.178.698.752 1.757 1.197 2.926 1.197 1.308 0 2.447-.5 3.227-1.388.724-.839 1.003-1.839 1.003-3.12v-1.114h-4.23v-2.56h7.235v3.034c0 2.563-.47 4.203-1.781 5.593M766.27 170.77h-4.457v6.206h4.456c2.004 0 3.368-1.139 3.368-3.088 0-1.948-1.364-3.117-3.368-3.117zm3.478 17.12l-4.176-8.351h-3.759v8.352h-3.006v-19.819h7.684c3.76 0 6.152 2.42 6.152 5.79 0 2.838-1.726 4.647-3.954 5.26l4.566 8.769h-3.507M777.05 187.89v-19.818h12.667v2.699h-9.66v5.79h8.242v2.673h-8.242v5.955h9.66v2.702h-12.666M793.845 187.89v-19.818h12.666v2.699h-9.659v5.79h8.24v2.673h-8.24v5.955h9.659v2.702h-12.666M825.113 187.89v-13.25l-4.562 9.659h-2.228l-4.676-9.66v13.252h-3.008v-19.819h3.008l5.789 12.33 5.677-12.33h3.01v19.819h-3.01M833.283 187.89v-19.818h12.664v2.699h-9.658v5.79h8.239v2.673h-8.239v5.955h9.658v2.702h-12.664M862.241 187.89l-9.157-13.945v13.946h-3.007v-19.819h2.756l9.158 13.917v-13.917h3.006v19.819h-2.756M876.896 170.77v17.12h-3.008v-17.12h-5.457v-2.698h13.918v2.699h-5.453M891.041 188.057c-2.977 0-5.121-.696-7.016-2.617l2.006-1.975c1.448 1.446 3.034 1.89 5.065 1.89 2.59 0 4.093-1.114 4.093-3.032 0-.863-.248-1.59-.78-2.06-.5-.475-1.002-.67-2.172-.834l-2.336-.336c-1.616-.22-2.893-.778-3.757-1.587-.973-.915-1.45-2.171-1.45-3.782 0-3.453 2.506-5.821 6.626-5.821 2.617 0 4.453.67 6.152 2.258l-1.92 1.89c-1.227-1.168-2.645-1.531-4.315-1.531-2.338 0-3.618 1.339-3.618 3.09 0 .725.221 1.366.75 1.837.5.448 1.31.778 2.227.92l2.257.333c1.836.276 2.867.724 3.699 1.473 1.087.949 1.615 2.368 1.615 4.066 0 3.65-2.978 5.818-7.126 5.818"/></g></svg>